<?xml version="1.0" encoding="utf-8"?>
<!-- Generator: Adobe Illustrator 21.1.0, SVG Export Plug-In . SVG Version: 6.00 Build 0)  -->
<svg version="1.1" id="Layer_1" xmlns="http://www.w3.org/2000/svg" xmlns:xlink="http://www.w3.org/1999/xlink" x="0px" y="0px"
	 viewBox="0 0 315.8 164.6" style="enable-background:new 0 0 315.8 164.6;" xml:space="preserve">
<style type="text/css">
	.st0{fill:#010101;}
	.st1{fill:none;}
	.st2{font-family:'ChaparralPro-Bold';}
	.st3{font-size:39.5185px;}
	.st4{font-family:'Chalkboard';}
</style>
<g>
	<g id="maker_icon">
		<path class="st0" d="M94.3,50.9c6.9,23.2-1.2,50.1-19.8,65.7c-4.4,3.7-4.5,10.4-4.2,16.2c0.3,5.8,0,12.5-4.6,16
			c-2.7,2.1-6.8,2.9-8,6c-1.2,3.1-5.7,2.8-8.9,1.9c-0.9-0.4-0.6-1.4-0.6-2.1c0-0.2-0.1-0.4-0.3-0.5c-3-1.1-5-3.9-6.1-6.9
			c-1.1-3.1-1.1-6.5-0.9-9.8c0.3-3.8,0.7-8.2-2.1-10.7c-12.4-11.4-21.7-26.7-23.6-43.4c-1.9-16.6,4.4-34.5,17.7-44.5
			c0.2-0.1,0.2-0.3,0.2-0.6c-1.4-5.1-2.8-10.3-4.3-15.5c-0.1-0.4,0.3-0.8,0.7-0.6c0.5,0.2,1,0.9,1.2,1.6c1.4,4.3,2.7,8.5,4.1,12.8
			c0.1,0.2,0.2,0.3,0.5,0.4c2.2,0.2,4.1-1.8,4.6-3.9c0.6-2.3,0-4.6-0.5-6.9c-0.4-2-0.7-4.8-0.2-5.9c0.2-0.3,0.6-0.4,0.9-0.1
			c1.5,1.9,1.5,12.7,2.2,12.5c2.8,0.6,5.5-1.6,6.4-4.3c0.8-2.3,0-6.5,0.1-7.9c0-0.3,0.2-0.5,0.5-0.5c1.2,0,2,1.9,1.7,3.2
			c-0.3,1.5-1.3,2.9-0.9,4.4c0.6,2.4,4.3,2.5,6,0.7c1.7-1.8,1.9-4.5,2-6.9c0.2-4.1,0.3-8.3,0.5-12.4c0-1.3,0.8-3,1.9-2.9
			c0.3,0,0.5,0.3,0.5,0.6c-0.8,7.1-1.3,14.2-1.5,21.2c0,0.3,0.2,0.5,0.4,0.5c2.2,0.3,4.2-1.7,4.9-3.8c0.8-2.3,0.5-4.7,0.7-7.1
			c0.2-2.4,1.5-6.4,3-6.2c1,0.3-1.4,8.2-2.1,12.3c-0.2,1.2-0.4,2.4,0.1,3.5c0.5,1.1,2.1,1.7,2.9,0.9c0.3-0.3,0.5-0.7,0.7-1.2
			c0.8-2.2,1.5-6.3,2.4-7.1c0.1-0.1,0.4-0.2,0.5-0.1c2.4,0.9-1.6,5.7-0.6,8.5c0.7,2.2,3.9,2.4,5.9,1.2c1.9-1.2,3.1-3.4,4.7-5.1
			c1.4-1.5,3.3-2.7,5.3-2.5c1.6,0.5-5.3,6.2-8.6,9.6c-0.2,0.3-0.2,0.7,0.2,0.8C87.5,35.2,91.9,43.1,94.3,50.9 M82.8,104.5
			C91.2,93.3,95.6,79.1,95,65.1c-0.3-8.1-2.4-16.2-6.9-22.9c-4.5-6.7-11.8-11.7-19.8-12.6c-2.3-0.2-4.6-0.2-7,0.1
			c-17.5,1.8-34.4,12.6-41,28.9c-3.6,8.9-4,18.8-2.3,28.2c2.7,14.7,10.8,28.3,22.4,37.8c3.3,2.7,7.8,3.5,12,3.1
			c3.3-0.3,6.5-1.2,9.3-2.8c4.1-2.2,7.5-5.7,10.8-9.1C76.2,112.3,79.8,108.6,82.8,104.5 M43.7,134.7c-0.5,0.7-0.3,1.7,0.1,2.5
			c0.5,0.7,1.2,1.2,2,1.6c3.3,1.6,7.1,1.6,10.5,0.4c3.4-1.2,6.4-3.4,8.8-6.1c0.4-0.4,0.7-0.8,1.1-1.2c0.3-0.3,0.9-0.1,0.9,0.3
			c0.1,1.3-0.5,2.7-1.4,3.7c-1.1,1.3-2.7,2.2-4.2,3c-2.1,1.1-4.3,2.3-6.6,2.9c-3.6,0.9-7.6,0.4-10.9-1.4c-0.3-0.2-0.7,0-0.8,0.3
			c-0.2,0.9,0.1,2,0.8,2.7c0.8,0.9,2,1.3,3.2,1.6c6,1.4,12.6-0.8,16.7-5.4c0.7-0.7,1.3-1.6,2.2-1.9c0.3-0.1,0.6,0.1,0.7,0.4
			c0.1,0.8-0.4,1.7-0.9,2.4c-4.7,6-13.2,8.5-20.5,6.3c-0.5-0.2-0.9,0.5-0.5,0.9c0.7,0.6,1.7,1,2.6,1.3c2.1,0.7,4.3,1.4,6.5,2
			c0.1,0,0.2,0,0.3,0c4.3-1.4,7.8-4.3,11.3-7.1c0.7-0.5,1.3-1.1,1.7-1.9c0.3-0.6,0.4-1.3,0.5-1.9c0.4-3.3,0.6-6.7,0.5-10
			c0-0.4-0.5-0.7-0.8-0.4C61,134.9,51.9,136.9,43.7,134.7 M48,130.1c-1.3,0-2.8-0.1-4,0.3c-0.2,0.1-0.4,0.3-0.3,0.5
			c0,0.1,0,0.3,0,0.4c0,0.2,0.1,0.3,0.2,0.4c1.8,1.1,4,1.8,6.1,1.9c2,0,4-0.4,6-0.9c3.9-1,7.9-2.2,10.7-5.1c0.8-0.9,1.6-2.1,1.6-3.2
			c0-0.6-0.7-0.7-1-0.2c-0.1,0.1-0.1,0.3-0.1,0.4c0,0.1-0.1,0.2-0.2,0.3C61.3,128.4,54.6,130.2,48,130.1"/>
		<path class="st0" d="M40.3,49.9c1.4-0.1,2.7,0.7,3.5,1.7c0.9,1.1,1.4,2.4,1.7,3.7c0.5,1.8,0.8,3.7,0.9,5.6c0,0.7,0,1.4,0,2.1
			c-0.1,3.1-0.7,6.6-3.2,8.5c-1.3,1-3,1.5-4.6,1.2c-0.5-0.1-0.9-0.2-1.3-0.5c-0.3-0.3-0.5-0.7-0.6-1.1c-1.4-3.8-1-8.1-1-12.1
			c0-1.9-0.1-3.8,0.5-5.6C36.9,51.6,38.4,50,40.3,49.9 M40.4,70.7c-0.5,1.8-1.4,0.6-1.8,0c0.2-0.7,0.7-2.9,0.9-3.6
			c0.3-1,0.5-2,1-2.9c0.5-0.9,1.3-1.7,2.3-2.3c0.8-0.5,1.9-1,1.7-1.9c-0.3-2.1-1-4.2-2-6.1c-0.6-1-1.5-2.1-2.6-1.9c-1,0.2-1.7,1-2,2
			s-0.3,1.9-0.3,2.9c0,3.2,0.1,6.4,0.1,9.6c0,0.5,0,0.9,0.1,1.3c0.1,1.2,0.6,2.4,1.3,3.3"/>
		<path class="st0" d="M74.2,62.7c-0.1,0.9-0.4,1.7-1.5,2.6c-1.1,1.1-2.5,1.4-3.9,1.7c-1.5,0.3-3.2,0.1-4.4-0.8
			c-1.1-0.8-1.7-2.1-2-3.4c-0.4-1.7-0.8-3.5-0.8-5.3c0-3.2-0.5-5.4,0.7-9.1c2.4-2.2,5.8-1.5,8.2,0.3c0.6,0.5,1.2,1,1.6,1.6
			c0.8,1.2,1.2,2.7,1.5,4.1c0.3,1.5,0.5,3,0.6,4.5C74.2,59.4,74.7,60.8,74.2,62.7 M63.6,49.9c-0.2,3.2,0,6.1,0.1,9.2
			c2.8-0.7,5.9-0.3,8.3,1.2c0.4-2.6,0-5.3-1-7.7c-0.3-0.7-0.7-1.5-1.3-2.1C68.2,48.9,65.5,48.8,63.6,49.9"/>
		<path class="st0" d="M44,89.6c-0.2-1.5-0.3-2.9-0.4-4.4c0.5-0.6,1.5-0.5,2.1-0.1c0.7,0.4,1.2,0.9,2,1.2c0.5,0.2,1,0.2,1.6,0.1
			c4.4-0.3,8.7-1.8,12.3-4.4c0.5-0.4,1.3-0.2,1.7,0.3c0.4,0.5,0.6,1.1,0.7,1.7c1.1,5.5-1.6,11.5-6.5,14.2c-1.8,1-3.9,1.6-5.9,1.4
			c-2.1-0.2-4.1-1.1-5.4-2.7C44.6,94.9,44.2,92.2,44,89.6 M59.2,90.8c1.9-1.5,1.9,1.2,2.7-1.1c0.3-0.8,0.5-1.6,0.5-2.4
			c0-1-0.1-1.9-0.5-2.8c-3,1.8-6.3,3.1-9.7,3.7c-2,0.3-4,0.5-5.9,0.3c0,1.6,0,3.3,0.6,4.8c0.5,1.4,1.5,2.6,2.7,3.4
			c0.5,0.3,1.1,0.6,1.7,0.6c0.6,0,1.2-0.4,1.4-1c0.9-3.4,3.4-6.3,6.7-7.6c0.8-0.3,2.6,0.6,2.7,1.5c0,0.9-0.9,1.6-1.7,1.4
			C60.2,91.5,59.3,91,59.2,90.8c-0.5,0.7-1.4,1.1-2.2,1.6"/>
	</g>
	<path class="st0" d="M68.1,62.3l-0.4,0.6L68.1,62.3z"/>
</g>
<rect x="100.9" y="85.9" class="st1" width="355.6" height="157.4"/>
<text transform="matrix(1 0 0 1 100.931 113.5332)"><tspan x="0" y="0" class="st2 st3">Springville</tspan><tspan x="0" y="41.8" class="st4 st3">Maker Club</tspan></text>
</svg>
